PathFileType	4	(X/Y/Z)	C:\Users\dbl\Desktop\20210112\20210112\bx_n_0_501-Unnamed.trc
DataRate	CameraRate	NumFrames	NumMarkers	Units	OrigDataRate	OrigDataStartFrame	OrigNumFrames
50.00	50.00	       10	0	mm	50.00	212	       339
Frame#	Time	
		

212	4.220				-743.75476	263.36755	743.85205										-757.09259	-23.81238	206.09984	-690.17548	13.78162	524.64490													-548.07996	211.83517	165.31427				-734.47168	133.30736	573.92822							-796.63715	181.96529	183.13869	-763.49475	225.18469	204.24129	-590.05457	183.69989	174.35220	-882.70691	296.05905	144.52444	-758.16638	241.34622	575.59216	-640.50702	273.61130	160.10504	-602.03918	274.27710	159.65474	-528.31281	304.02249	146.19852										-727.83240	69.68822	577.62408	-794.50391	31.99199	173.86031				-876.12219	-78.89765	141.41621													-721.08917	144.06145	219.37715													-517.91980	-73.01032	143.17534	
213	4.240				-742.38281	263.39255	744.21649										-757.09259	-23.81238	206.09984	-689.43463	13.40491	524.37537													-548.07996	211.83517	165.31427				-733.24530	133.30502	573.71906							-796.57465	181.78223	183.38014	-763.19586	225.05731	204.02519	-590.05457	183.69989	174.35220	-882.60010	295.98544	144.47417	-758.03650	240.09070	575.24329	-640.63416	273.71628	160.11061	-601.87750	274.08206	159.79892	-528.30585	304.11691	146.33821										-726.92499	69.34885	577.21796	-794.65851	32.05352	173.88934				-876.14905	-78.79788	141.54057													-721.21417	144.39664	218.88927													-517.95569	-72.80466	142.91631	
214	4.260				-740.91370	262.65735	744.31317										-756.84210	-24.10922	205.79285	-689.14966	13.30252	524.13959													-548.12628	211.90352	165.20981				-732.47101	132.69675	574.30499							-796.47620	181.76689	183.15280	-763.26294	224.91412	204.09299	-590.03223	183.80782	174.44978	-882.60834	296.06894	144.52896	-756.83301	239.63022	574.59607	-640.74072	273.93347	160.14893	-601.95776	274.15994	159.65213	-528.24139	304.00241	146.24747										-726.72284	69.03893	577.03101	-794.69659	31.94961	174.06825				-876.12219	-78.89765	141.41621													-720.89343	144.26375	218.54010													-518.00629	-72.78222	143.02313	
215	4.280				-739.64301	263.04263	744.64594										-756.93652	-24.05470	205.80684	-688.33099	13.38609	524.01135													-548.07996	211.83517	165.31427				-730.89740	132.78572	574.45129							-796.45264	181.71913	183.21768	-763.13452	224.85410	204.42427	-589.96039	183.75734	174.39041	-882.65271	296.18555	144.64310	-755.97522	239.38750	574.76489	-640.71057	273.77176	160.12508	-601.95776	274.15994	159.65213	-528.38281	304.18555	146.46870										-725.89655	68.59295	577.26062	-794.89136	31.85012	174.12309				-876.12219	-78.89765	141.41621													-720.66321	144.03073	218.70992													-517.98566	-73.08208	143.18445	
216	4.300				-738.33649	263.00449	745.07318										-756.90039	-24.57395	205.92290	-687.75745	12.98549	524.05670													-548.07996	211.83517	165.31427				-729.98291	132.57840	574.58594							-796.36237	181.70781	183.27832	-763.02197	224.88206	204.32092	-590.03223	183.80782	174.44978	-882.66919	296.18298	144.57330	-755.36639	239.91591	575.27826	-640.45581	273.87277	160.09605	-601.95892	274.19925	159.80153	-528.37677	304.06308	146.32130										-725.25781	68.61594	577.28003	-794.66974	31.86552	174.01128				-876.01215	-78.99601	141.23476													-720.53961	144.01360	218.65479													-517.93964	-73.02198	143.22006	
217	4.320				-737.23279	262.79388	745.02081										-756.67004	-24.35329	205.98259	-687.50830	13.02337	523.95825													-548.12628	211.90352	165.20981				-729.21643	132.72957	574.31628							-796.38531	181.77774	183.32745	-763.08105	224.83543	204.23450	-590.04553	183.89241	174.34897	-882.57813	296.05612	144.61690	-754.27911	239.69159	575.04688	-640.50208	273.68811	160.11789	-601.95776	274.15994	159.65213	-528.12286	304.16248	146.42578										-724.60101	68.11589	577.01788	-794.73468	31.93209	174.08592				-876.14905	-78.79788	141.54057													-720.61426	143.98773	218.54115													-517.94177	-72.92817	143.09164	
218	4.340				-736.02582	262.47055	744.72345							-740.82605	271.14200	877.42291	-757.04779	-24.54824	205.77707	-686.77319	12.47227	524.21808													-548.24127	211.99973	165.19733				-728.29065	132.79915	574.15887							-796.34686	181.54854	183.37520	-763.03052	224.67101	204.34158	-589.92065	183.64345	174.46384	-882.52582	296.01248	144.52502	-753.78217	239.35242	575.01813	-640.57025	273.66858	160.19408	-602.03278	274.21591	159.72636	-528.30585	304.11691	146.33821										-724.15729	68.04529	577.25690	-794.94000	31.80108	174.00453				-876.13379	-78.89445	141.38989													-720.47540	143.89978	218.67720													-517.99066	-73.04592	143.03880	
219	4.360				-734.86938	262.44958	744.81958							-739.44202	271.44507	877.63440	-756.96613	-24.50560	205.92316	-686.32324	12.40248	523.96326													-548.31689	212.04341	165.11844				-727.56494	133.13957	574.46753							-796.33661	181.41771	183.22733	-762.96991	224.79193	204.35701	-590.10651	183.91737	174.44043	-882.58478	296.15625	144.63521	-752.78674	239.50684	575.01935	-640.56104	273.81256	160.04715	-601.95251	274.13806	159.87314	-528.24139	304.00241	146.24747										-723.48114	67.79298	577.33801	-794.91772	31.77378	173.98763				-876.14905	-78.79788	141.54057													-720.47540	143.89978	218.67720													-517.99176	-72.94415	143.00693	
220	4.380				-734.05518	262.62946	745.14624							-738.40503	271.59125	877.60767	-756.80597	-24.86931	205.39574	-685.51843	12.10347	524.11157													-548.06458	211.91701	165.35913				-726.65570	132.61699	574.86212							-796.27991	181.62479	183.45900	-762.87164	224.67374	204.59258	-590.00482	183.71211	174.52164	-882.44348	296.09494	144.68474	-752.30865	239.57391	575.47168	-640.56598	273.73572	160.03430	-602.03278	274.21591	159.72636	-528.37946	304.01703	146.31387										-722.63873	67.49870	577.23401	-794.87146	31.73670	174.02721				-876.31458	-78.92422	141.43286													-720.30389	143.96257	218.65376													-517.91980	-73.01032	143.17534	
221	4.400				-733.13477	262.47549	745.49591							-737.24567	272.16470	877.84998	-756.80597	-24.86931	205.39574	-685.25330	12.00298	523.75403													-548.19946	211.94475	165.13264				-725.57666	132.65321	574.80475							-796.34705	181.54575	183.36247	-762.94019	224.80394	204.61790	-590.03223	183.80782	174.44978	-882.76465	296.10437	144.52785	-751.65588	239.43552	575.89899	-640.53925	273.89902	160.24518	-602.03467	274.26212	159.86780	-528.10931	303.85101	146.41585										-722.12787	67.22109	576.73810	-794.85364	31.59785	174.18858				-876.31458	-78.92422	141.43286													-720.30389	143.96257	218.65376													-517.96869	-73.12807	143.12250	
